<?xml version="1.0" encoding="UTF-8"?>
<svg id="a" data-name="Layer 1" xmlns="http://www.w3.org/2000/svg" viewBox="0 0 884.83 1481.85">
  <defs>
    <style>
      .b {
        fill: #fff;
        stroke-width: 0px;
      }
    </style>
  </defs>
  <g>
    <path class="b" d="M401.31,442.03c-42.66-1.7-83.6.54-124.49,3.26-25.24,1.68-50.44,4.18-75.4,8.56-11.3,1.99-22.65,3.85-33.81,6.49-11.08,2.62-21.51,6.73-29.37,15.82-7.07,8.18-7.99,15.38-2.02,24.43,3.95,5.98,9.55,10.14,15.6,13.76,9.23,5.52,10.75,15.08,3.6,23.09-6.43,7.21-14.35,11.6-23.99,13.2-23.02,3.83-44.56.71-63.48-13.69-12.74-9.7-22.74-21.87-30.13-36.2-13.38-25.94-19.55-53.68-21.02-82.62-1.86-36.56,1.93-72.69,11.86-107.79,6.95-24.55,19.33-47.12,31.66-69.43,37-67,86.15-123.22,149.41-166.69,52.97-36.4,111.06-60.46,174.74-69.71,102.86-14.94,197.75,7.38,284.01,64.78,87.79,58.42,146.78,139.71,182.86,237.97,16.43,44.75,25.77,91.26,28.1,138.99,1,20.55.24,40.99-7.08,60.61-14.98,40.16-55.97,64.97-98.28,59.26-12.21-1.65-22.42-6.39-26.19-19.66-1.65-5.81-.19-10.45,4.11-14.4,1.35-1.24,2.68-2.52,4.17-3.57,6.08-4.31,8.36-10.38,7.36-17.44-.99-6.97-5.26-11.89-11.94-14.13-19.37-6.5-38.45-14.05-58.38-18.65-32.57-7.52-64.99-15.83-97.98-21.32-38.78-6.45-77.75-11.3-117.15-12.08-26.15-.51-52.24-2.87-76.77-2.83Z"/>
    <path class="b" d="M618.2,1084.43c-.63-16.33.46-32.56,3.05-48.69.6-3.77-.07-6.79-3.18-9.76-13.83-13.21-24.38-29.02-34.82-44.91-15.3-23.26-30.12-46.79-41.02-72.52-11.31-26.7-18.63-54.4-20.89-83.42-2.16-27.62-3.34-55.26-.69-82.84,2.13-22.11,7.33-43.74,12.9-65.23,6.66-25.68,13.87-51.19,22.59-76.26,1.07-3.08-.51-4.65-2.3-6.47-15.51-15.83-31.04-31.64-46.49-47.52-5.97-6.13-11.19-12.73-13.2-21.39-4.42-18.96,11.52-35.48,30.27-31.01,3.71.88,6.63.54,9.91-1.31,13.77-7.78,29.13-8.98,44.43-9.95,18.58-1.18,36.97-.01,54.81,5.92,2.53.84,4.9.07,7.35-.49,21.26-4.82,39.92,10.68,37.36,31.25-1.11,8.96-6.24,16.14-12.28,22.44-12.28,12.81-23.07,26.68-32.31,41.84-2.45,4.02-2.42,6.72.53,10.51,28.76,36.86,50.98,77.63,70.29,120,9.41,20.64,16.31,42.36,19.33,64.9,3.09,23.09,5.33,46.32,3.33,69.74-1.09,12.77-.36,25.62-1.31,38.44-1.81,24.52-8.04,48.04-15.32,71.33-5.75,18.41-11.95,36.68-18.12,54.95-.89,2.62-.51,4.23,1.42,6.12,23.68,23.22,51.81,38.05,84.1,45.35,23.26,5.26,46.86,7.71,70.61,8.28,14.19.34,24.48,6.46,32.25,17.72,6.69,9.7,4.98,22.02-4.31,30.19-9.57,8.42-21.36,12.01-33.51,14.55-24.01,5.02-47.71,3.19-70.97-4.15-4.85-1.53-7.02-.46-9.88,3.71-17.46,25.46-40.24,44.19-70.2,53.24-2.87.87-3.73,1.63-2.77,4.73,3.01,9.7,6.22,19.32,9.99,28.76,1.13,2.82,2.09,3.89,5.4,2.42,12.23-5.43,23.81-11.89,34.67-19.73,7.7-5.56,13.42-12.88,19.29-20.13,1.15-1.42,2.27-2.92,3.66-4.06,1.68-1.38,3.73-1.39,5.65-.37,1.78.95,2.47,2.6,2.51,4.58.06,3.37-1.63,6.1-3.43,8.69-5.76,8.24-12.34,15.69-20.61,21.56-11.32,8.04-23.09,15.23-36.28,19.77-3.58,1.23-4.4,2.73-2.45,6.08,4.02,6.91,8.05,13.83,11.61,20.98,2.13,4.27,4.91,4.63,8.92,3.38,9.04-2.8,17.1-7.34,24.52-13.12.79-.61,1.51-1.31,2.29-1.94,3.03-2.44,6.27-4.3,9.79-1.1,2.78,2.54,2.05,6.86-1.84,10.5-8.4,7.85-18.2,13.48-29.16,16.85-3.69,1.13-3.7,2.23-1.66,4.97,7.96,10.73,17,20.52,26.14,30.22,2.19,2.32,3.94,2.24,6.4.43,4.96-3.65,10.12-7.01,14.48-11.45,2.6-2.65,5.69-4.66,9.14-1.51,3.32,3.04,1.87,6.36-.27,9.41-3.72,5.3-8.94,8.93-14.29,12.32-2.56,1.62-2.66,2.7-.32,4.72,10.71,9.31,22.39,17.32,33.86,25.62,1.76,1.27,3.28,1.32,4.99.12,2.31-1.62,4.67-3.18,6.99-4.8,2.56-1.79,5.26-2.53,7.75-.21,2.55,2.37,2.46,5.31.77,8.2-.58,1-1.17,2.19-2.09,2.77-4.89,3.09-2.22,4.61,1.01,6.55,16.95,10.14,33.65,20.76,43.95,38.35,6.32,10.79,12.07,22.28,10.21,35.3-1.8,12.63-6.46,24.58-14.67,34.46-7.37,8.88-17.96,10.55-28.79,9-13.37-1.91-25.14-7.85-34.84-17.19-16.53-15.92-33.87-31-49.47-47.91-25.09-27.21-50.36-54.23-68.45-86.94-21.99-39.76-40.76-80.88-52.33-124.98-5.5-20.98-7.99-42.49-9.83-64.09-1.58-18.59-3.22-37.16-4.15-55.8ZM630.5,886.17c11.28.36,21.74-2.13,32.15-5.28,4.47-1.35,5.97-4.23,6.4-8.3,1.06-10.06,2.29-20.1,2.7-30.23.16-3.88-.88-3.88-3.79-2.47-7.85,3.81-16.19,6.11-24.84,7.08-17.83,2.01-35.54,1.28-53.12-2.48-5.67-1.21-5.76-1.05-4.38,4.49,2.26,9.03,4.78,17.98,8.02,26.73,1.1,2.98,2.86,4.45,5.8,5.41,10.21,3.34,20.62,5.17,31.05,5.05ZM624.2,835.41c14.93.03,29.5-1.74,43.19-8.35,3.11-1.5,4.41-3.3,4.19-6.9-.49-7.98-1.37-15.89-2.44-23.8-.49-3.6-1.15-4.71-4.78-2.34-9.81,6.39-20.79,9.6-32.43,10.29-17.26,1.04-34.18-.98-50.64-6.43-2.68-.89-4.66-1.86-4.22,2.67.81,8.27,2.11,16.46,3.3,24.67.5,3.42,2.12,4.78,5.3,5.51,12.69,2.9,25.5,4.63,38.53,4.67ZM576.05,769.07c0,2.88.29,5.42-.06,7.86-.66,4.53,1.58,6.39,5.52,7.87,11.34,4.24,23.12,6.02,35.07,6.97,16.12,1.28,31.48-1.15,45.51-9.8,2.64-1.62,3.6-3.14,2.66-6.42-2.15-7.51-4.58-14.91-7.08-22.31-1.37-4.04-2.69-4.86-7.01-3.32-19.57,6.98-39.55,11.58-60.58,7.83-4.31-.77-9.75-4.3-12.61-1.74-3.08,2.75-1.16,8.82-1.41,13.06ZM687.33,1177.18c-.41.09-.08.04.24-.05,27.94-8.01,48.69-25.78,65.81-48.47,1.58-2.09.25-2.82-1.51-3.57-5.81-2.47-11.62-4.94-17.35-7.58-2.31-1.06-3.95-.77-5.75,1.04-3.4,3.42-6.89,6.76-10.56,9.88-10.68,9.05-23.08,15.01-36.19,19.61-2.2.77-3.98,1.32-3.24,4.42,1.79,7.42,3.29,14.91,4.95,22.36.33,1.47.71,3.05,3.61,2.37ZM607.1,746.66c12.72-1.06,26.72-3.59,40.38-8.06,2.99-.98,3.54-2.41,2.13-5.13-3.27-6.35-6.41-12.76-9.57-19.17-.81-1.65-1.67-2.57-3.84-1.98-16.89,4.64-34.01,5.86-51.34,2.97-1.94-.32-3.09-.09-3.41,2.26-.93,6.9-2.09,13.77-3.11,20.66-.36,2.42.29,3.97,3.1,4.66,7.92,1.97,15.89,3.48,25.66,3.78ZM601.87,895.44c4.78,10.42,10.08,19.78,15.73,28.95.94,1.52,2.44,2.18,4.22,2.28,10.51.61,20.96.47,31.26-2.08,2.48-.61,3.89-1.9,4.77-4.45,2.59-7.56,4.45-15.31,6.41-23.04.67-2.64.67-4.54-3.33-3.19-13.08,4.41-26.49,6.11-40.33,4.51-6.04-.7-11.96-2.16-18.73-2.98ZM673.25,1114.73c.78,6.09,1.68,12.17,2.27,18.28.3,3.08,1.44,3.51,4.2,2.56,14.33-4.95,27.12-12.4,38.39-22.58,2.47-2.23,1.91-3.08-.56-4.54-5.28-3.14-10.45-6.48-15.56-9.89-1.74-1.16-3.06-1.43-4.9-.12-6,4.27-12.65,7.34-19.59,9.67-3.5,1.17-4.94,3.02-4.25,6.63ZM621.4,499.99c-.23-.51-.46-1.03-.69-1.54-25.11-5.25-49.94-3.66-74.66,3.2,6.29,4.58,12.38,8.86,18.21,13.5,1.52,1.21,3.15.95,4.73.35,12.63-4.87,25.83-5.78,39.17-5.76,1.74,0,3.2-.36,4.51-1.63,2.85-2.77,5.81-5.42,8.73-8.11ZM604.29,704.09c8.19.06,16.27-.99,24.33-2.24,3.25-.5,4.35-1.65,2.29-4.8-2.64-4.03-4.98-8.26-7.43-12.42-1-1.7-2.13-2.62-4.42-2.22-8.71,1.53-17.47,2.49-26.29.82-1.95-.37-3.21.23-3.74,2.22-1.24,4.65-2.53,9.28-3.76,13.93-.7,2.64.61,3.4,3.1,3.74,5.3.72,10.59,1.07,15.93.97ZM652.03,937.19c-7.55,1.38-14.28,2.33-21.09,2.05-2.52-.1-3.09.83-1.59,2.87,3.84,5.23,7.74,10.42,11.56,15.66,1.72,2.37,2.65,1.83,3.56-.64,2.34-6.38,4.82-12.71,7.57-19.94ZM601.34,522.12c-7.74.56-14.72,1.3-21.61,2.98-2.4.58-2.76,1.45-1.12,3.25,3.12,3.42,6.24,6.84,9.33,10.29,1.17,1.3,2.2,2.04,3.4.02,3.19-5.34,6.43-10.66,10-16.54ZM614.5,670.46c-3.91-5.82-7.41-11.01-10.89-16.22-1.32-1.97-2.2-1.56-2.98.43-1.75,4.48-3.51,8.96-5.34,13.41-.97,2.37.2,2.69,2.23,2.92,5.33.62,10.6.25,16.97-.55ZM672.35,1096.48c5.31-1.47,9.75-3.68,14.14-5.97,1.34-.7,2.85-1.59.89-3.29-4.35-3.77-8.69-7.55-13.31-11.55-2.77,7.05-1.44,13.78-1.72,20.81Z"/>
  </g>
  <path class="b" d="M262.48,1140.23c-1.83,21.6-4.32,43.11-9.83,64.09-11.57,44.09-30.34,85.22-52.33,124.98-18.09,32.71-43.36,59.73-68.45,86.94-15.6,16.91-32.93,31.99-49.47,47.91-9.7,9.34-21.47,15.28-34.84,17.19-10.83,1.55-21.42-.13-28.79-9-8.21-9.88-12.87-21.83-14.67-34.46-1.86-13.02,3.89-24.51,10.21-35.3,10.3-17.59,27-28.21,43.95-38.35,3.23-1.93,5.91-3.46,1.01-6.55-.92-.58-1.51-1.77-2.09-2.77-1.69-2.9-1.77-5.83.77-8.2,2.49-2.32,5.2-1.58,7.75.21,2.31,1.62,4.67,3.18,6.99,4.8,1.72,1.2,3.23,1.16,4.99-.12,11.47-8.3,23.15-16.31,33.86-25.62,2.33-2.03,2.23-3.1-.32-4.72-5.36-3.39-10.57-7.02-14.29-12.32-2.14-3.05-3.59-6.37-.27-9.41,3.45-3.16,6.54-1.15,9.14,1.51,4.35,4.44,9.51,7.8,14.48,11.45,2.46,1.81,4.21,1.89,6.4-.43,9.15-9.7,18.18-19.49,26.14-30.22,2.03-2.74,2.02-3.84-1.66-4.97-10.95-3.37-20.75-9-29.16-16.85-3.9-3.64-4.63-7.96-1.84-10.5,3.52-3.21,6.76-1.34,9.79,1.1.78.63,1.5,1.33,2.29,1.94,7.42,5.78,15.48,10.33,24.52,13.12,4.01,1.24,6.79.89,8.92-3.38,3.56-7.15,7.59-14.07,11.61-20.98,1.95-3.35,1.13-4.85-2.45-6.08-13.19-4.54-24.97-11.73-36.28-19.77-8.27-5.88-14.85-13.33-20.61-21.56-1.81-2.59-3.49-5.31-3.43-8.69.03-1.97.72-3.63,2.51-4.58,1.91-1.02,3.97-1,5.65.37,1.39,1.14,2.51,2.64,3.66,4.06,5.87,7.24,11.59,14.57,19.29,20.13,10.86,7.84,22.44,14.3,34.67,19.73,3.31,1.47,4.28.4,5.4-2.42,3.77-9.44,6.98-19.05,9.99-28.76.96-3.1.1-3.86-2.77-4.73-29.96-9.05-52.74-27.77-70.2-53.24-2.86-4.17-5.03-5.25-9.88-3.71-23.26,7.34-46.96,9.17-70.97,4.15-12.15-2.54-23.94-6.13-33.51-14.55-9.29-8.17-11-20.5-4.31-30.19,7.77-11.26,18.06-17.38,32.25-17.72,23.75-.57,47.34-3.03,70.61-8.28,32.3-7.3,60.43-22.13,84.1-45.35,1.93-1.89,2.31-3.5,1.42-6.12-6.17-18.27-12.36-36.54-18.12-54.95-7.28-23.29-13.51-46.81-15.32-71.33-.95-12.82-.22-25.68-1.31-38.44-2-23.43.24-46.65,3.33-69.74,3.01-22.53,9.92-44.26,19.33-64.9,19.31-42.37,41.53-83.14,70.29-120,2.95-3.78,2.98-6.48.53-10.51-9.24-15.16-20.03-29.03-32.31-41.84-6.04-6.31-11.17-13.49-12.28-22.44-2.55-20.57,16.1-36.07,37.36-31.25,2.45.56,4.82,1.33,7.35.49,17.84-5.93,36.23-7.1,54.81-5.92,15.3.97,30.66,2.17,44.43,9.95,3.28,1.85,6.21,2.19,9.91,1.31,18.75-4.47,34.69,12.05,30.27,31.01-2.02,8.66-7.23,15.26-13.2,21.39-15.46,15.88-30.98,31.69-46.49,47.52-1.78,1.82-3.37,3.39-2.3,6.47,8.72,25.06,15.93,50.58,22.59,76.26,5.57,21.49,10.77,43.12,12.9,65.23,2.65,27.58,1.47,55.22-.69,82.84-2.27,29.03-9.59,56.72-20.89,83.42-10.89,25.73-25.72,49.26-41.02,72.52-10.45,15.89-21,31.7-34.82,44.91-3.1,2.97-3.78,5.99-3.18,9.76,2.59,16.13,3.68,32.36,3.05,48.69-.93,18.63-2.58,37.21-4.15,55.8ZM285.38,881.12c2.94-.96,4.7-2.43,5.8-5.41,3.24-8.75,5.76-17.69,8.02-26.73,1.39-5.54,1.29-5.7-4.38-4.49-17.57,3.76-35.29,4.49-53.12,2.48-8.65-.97-16.99-3.27-24.84-7.08-2.92-1.42-3.95-1.41-3.79,2.47.42,10.13,1.64,20.17,2.7,30.23.43,4.07,1.93,6.95,6.4,8.3,10.41,3.15,20.87,5.64,32.15,5.28,10.43.13,20.84-1.71,31.05-5.05ZM299.17,830.74c3.17-.73,4.8-2.09,5.3-5.51,1.19-8.21,2.49-16.4,3.3-24.67.44-4.53-1.54-3.56-4.22-2.67-16.45,5.45-33.37,7.46-50.64,6.43-11.64-.7-22.62-3.9-32.43-10.29-3.63-2.37-4.3-1.26-4.78,2.34-1.07,7.91-1.95,15.82-2.44,23.8-.22,3.6,1.08,5.39,4.19,6.9,13.68,6.61,28.26,8.38,43.19,8.35,13.03-.04,25.84-1.77,38.53-4.67ZM307.37,756.01c-2.86-2.55-8.3.97-12.61,1.74-21.03,3.76-41.01-.85-60.58-7.83-4.32-1.54-5.65-.72-7.01,3.32-2.5,7.4-4.93,14.8-7.08,22.31-.94,3.28.02,4.8,2.66,6.42,14.04,8.65,29.4,11.07,45.51,9.8,11.95-.95,23.73-2.73,35.07-6.97,3.94-1.47,6.18-3.33,5.52-7.87-.35-2.44-.06-4.98-.06-7.86-.25-4.24,1.67-10.32-1.41-13.06ZM201.11,1174.8c1.66-7.45,3.15-14.94,4.95-22.36.75-3.1-1.04-3.65-3.24-4.42-13.11-4.6-25.51-10.56-36.19-19.61-3.68-3.11-7.17-6.46-10.56-9.88-1.8-1.81-3.44-2.1-5.75-1.04-5.73,2.64-11.54,5.11-17.35,7.58-1.76.75-3.09,1.48-1.51,3.57,17.12,22.69,37.88,40.46,65.81,48.47.32.09.65.14.24.05,2.89.68,3.28-.9,3.61-2.37ZM303.39,742.88c2.81-.7,3.46-2.24,3.1-4.66-1.02-6.89-2.18-13.76-3.11-20.66-.32-2.34-1.47-2.58-3.41-2.26-17.34,2.89-34.45,1.66-51.34-2.97-2.18-.6-3.03.33-3.84,1.98-3.16,6.4-6.3,12.82-9.57,19.17-1.4,2.72-.86,4.15,2.13,5.13,13.66,4.47,27.66,7,40.38,8.06,9.78-.3,17.74-1.81,25.66-3.78ZM264.23,898.42c-13.84,1.6-27.25-.1-40.33-4.51-4-1.35-4,.55-3.33,3.19,1.96,7.73,3.82,15.48,6.41,23.04.87,2.55,2.29,3.84,4.77,4.45,10.3,2.55,20.75,2.69,31.26,2.08,1.78-.1,3.28-.76,4.22-2.28,5.65-9.17,10.95-18.53,15.73-28.95-6.77.82-12.68,2.28-18.73,2.98ZM207.33,1108.09c-6.94-2.32-13.6-5.4-19.59-9.67-1.84-1.31-3.16-1.04-4.9.12-5.12,3.41-10.28,6.75-15.56,9.89-2.46,1.47-3.02,2.31-.56,4.54,11.26,10.18,24.06,17.64,38.39,22.58,2.77.96,3.9.52,4.2-2.56.6-6.11,1.5-12.19,2.27-18.28.69-3.61-.75-5.46-4.25-6.63ZM272.16,508.11c1.31,1.27,2.77,1.63,4.51,1.63,13.34-.02,26.54.89,39.17,5.76,1.57.61,3.21.86,4.73-.35,5.83-4.64,11.92-8.92,18.21-13.5-24.73-6.86-49.55-8.45-74.66-3.2-.23.51-.46,1.03-.69,1.54,2.92,2.7,5.88,5.34,8.73,8.11ZM296.47,703.12c2.49-.34,3.79-1.1,3.1-3.74-1.23-4.65-2.52-9.28-3.76-13.93-.53-1.99-1.8-2.59-3.74-2.22-8.82,1.67-17.58.71-26.29-.82-2.29-.4-3.42.52-4.42,2.22-2.45,4.16-4.79,8.39-7.43,12.42-2.06,3.15-.97,4.3,2.29,4.8,8.07,1.25,16.15,2.3,24.33,2.24,5.33.1,10.63-.25,15.93-.97ZM240.37,957.12c.91,2.47,1.83,3.01,3.56.64,3.82-5.24,7.72-10.43,11.56-15.66,1.49-2.03.93-2.97-1.59-2.87-6.82.28-13.54-.67-21.09-2.05,2.76,7.23,5.23,13.56,7.57,19.94ZM293.49,538.67c1.2,2.02,2.24,1.28,3.4-.02,3.09-3.45,6.2-6.87,9.33-10.29,1.64-1.8,1.28-2.66-1.12-3.25-6.89-1.68-13.87-2.42-21.61-2.98,3.56,5.89,6.8,11.2,10,16.54ZM287.31,671.01c2.03-.24,3.2-.55,2.23-2.92-1.82-4.45-3.59-8.93-5.34-13.41-.77-1.99-1.66-2.4-2.98-.43-3.48,5.21-6.98,10.4-10.89,16.22,6.37.8,11.64,1.17,16.97.55ZM210.77,1075.67c-4.61,4.01-8.96,7.78-13.31,11.55-1.96,1.7-.45,2.59.89,3.29,4.39,2.29,8.82,4.5,14.14,5.97-.28-7.03,1.05-13.77-1.72-20.81Z"/>
</svg>